<?xml version="1.0" standalone="no"?>
<!DOCTYPE svg PUBLIC "-//W3C//DTD SVG 20010904//EN"
 "http://www.w3.org/TR/2001/REC-SVG-20010904/DTD/svg10.dtd">
<svg version="1.0" xmlns="http://www.w3.org/2000/svg"
 width="355.000000pt" height="355.000000pt" viewBox="0 0 355.000000 355.000000"
 preserveAspectRatio="xMidYMid meet">
<metadata>
Created by potrace 1.11, written by Peter Selinger 2001-2013
</metadata>
<g transform="translate(0.000000,355.000000) scale(0.100000,-0.100000)"
fill="#000000" stroke="none">
<path d="M1335 2796 c-159 -31 -275 -94 -396 -215 -124 -125 -188 -261 -214
-453 -6 -45 -8 -48 -43 -53 -280 -44 -483 -209 -569 -464 -59 -176 -36 -390
62 -558 42 -71 150 -178 224 -222 38 -22 104 -53 147 -68 l79 -28 1152 -3
c983 -2 1162 0 1222 12 213 45 383 205 447 421 24 81 24 230 0 310 -59 200
-212 356 -402 411 l-62 18 -11 51 c-7 27 -30 88 -53 135 -54 112 -167 227
-278 283 -143 71 -298 93 -440 63 -63 -14 -65 -14 -80 7 -64 91 -113 147 -168
193 -74 61 -198 125 -287 149 -85 22 -245 28 -330 11z"/>
</g>
</svg>
